<svg xmlns="http://www.w3.org/2000/svg" xmlns:xlink="http://www.w3.org/1999/xlink" xmlns:lucid="lucid" width="1020" height="1900"><g transform="translate(-860 -20)" lucid:page-tab-id="7ezayB~FQlW7"><path d="M0 0h2317.42v1916.6H0z" fill="#fff"/><path d="M880 48a8 8 0 0 1 8-8h964a8 8 0 0 1 8 8v1844a8 8 0 0 1-8 8H888a8 8 0 0 1-8-8z" stroke="#333" fill="#edf5ff"/><use xlink:href="#a" transform="matrix(1,0,0,1,885,45) translate(485 26.666666666666657)"/><use xlink:href="#b" transform="matrix(1,0,0,1,885,45) translate(304.8148148148149 66.66666666666664)"/><use xlink:href="#c" transform="matrix(1,0,0,1,885,45) translate(480.37037037037044 66.66666666666664)"/><path d="M1225.67 187.1c17.67 0 32 17.9 32 40s-14.33 40-32 40h-96c-17.68 0-32-17.9-32-40s14.32-40 32-40z" stroke="#333" fill="#fa7811"/><use xlink:href="#d" transform="matrix(1,0,0,1,1102.6666666666667,192.09581278101075) translate(47.2283950617284 39.24305555555556)"/><path d="M1102.67 347.76a8 8 0 0 1 8-8h144a8 8 0 0 1 8 8v82.84a8 8 0 0 1-8 8h-144a8 8 0 0 1-8-8z" stroke="#333" fill="#1071e5"/><use xlink:href="#e" transform="matrix(1,0,0,1,1114.6666666666667,351.7624794476776) translate(6.469135802469133 30.62847222222222)"/><use xlink:href="#f" transform="matrix(1,0,0,1,1114.6666666666667,351.7624794476776) translate(76.39506172839506 30.62847222222222)"/><use xlink:href="#g" transform="matrix(1,0,0,1,1114.6666666666667,351.7624794476776) translate(5.358024691358011 51.96180555555556)"/><use xlink:href="#h" transform="matrix(1,0,0,1,1114.6666666666667,351.7624794476776) translate(74.34567901234568 51.96180555555556)"/><path d="M1057.67 719.77a8 8 0 0 1 8-8h224a8 8 0 0 1 8 8v114.66a8 8 0 0 1-8 8h-224a8 8 0 0 1-8-8z" stroke="#333" fill="#008a0e"/><use xlink:href="#i" transform="matrix(1,0,0,1,1069.6666666666667,723.7675430257278) translate(41.50617283950616 34.28472222222222)"/><use xlink:href="#j" transform="matrix(1,0,0,1,1069.6666666666667,723.7675430257278) translate(110.49382716049384 34.28472222222222)"/><use xlink:href="#k" transform="matrix(1,0,0,1,1069.6666666666667,723.7675430257278) translate(9.999999999999986 55.61805555555556)"/><use xlink:href="#l" transform="matrix(1,0,0,1,1069.6666666666667,723.7675430257278) translate(103.53086419753085 55.61805555555556)"/><use xlink:href="#m" transform="matrix(1,0,0,1,1069.6666666666667,723.7675430257278) translate(139.9753086419753 55.61805555555556)"/><use xlink:href="#k" transform="matrix(1,0,0,1,1069.6666666666667,723.7675430257278) translate(8.567901234567898 76.9513888888889)"/><use xlink:href="#n" transform="matrix(1,0,0,1,1069.6666666666667,723.7675430257278) translate(102.09876543209876 76.9513888888889)"/><use xlink:href="#o" transform="matrix(1,0,0,1,1069.6666666666667,723.7675430257278) translate(154.2962962962963 76.9513888888889)"/><path d="M1097.67 1181.64a8 8 0 0 1 8-8h144a8 8 0 0 1 8 8v72a8 8 0 0 1-8 8h-144a8 8 0 0 1-8-8z" stroke="#333" fill="#008a0e"/><use xlink:href="#p" transform="matrix(1,0,0,1,1109.6666666666667,1185.6408211459975) translate(28.617283950617278 14.222222222222223)"/><use xlink:href="#q" transform="matrix(1,0,0,1,1109.6666666666667,1185.6408211459975) translate(70.93827160493827 14.222222222222223)"/><use xlink:href="#r" transform="matrix(1,0,0,1,1109.6666666666667,1185.6408211459975) translate(33.50617283950617 35.55555555555556)"/><use xlink:href="#s" transform="matrix(1,0,0,1,1109.6666666666667,1185.6408211459975) translate(36.96296296296296 56.88888888888889)"/><path d="M1237.67 1425.64c0 6.63-26.87 12-60 12-33.14 0-60-5.37-60-12v-96c0-6.63 26.86-12 60-12 33.13 0 60 5.37 60 12z" stroke="#333" fill="#860303"/><path d="M1237.67 1329.64c0 6.63-26.87 12-60 12-33.14 0-60-5.37-60-12" stroke="#333" fill="none"/><use xlink:href="#t" transform="matrix(1,0,0,1,1122.6666666666667,1346.6408211459975) translate(21.987654320987644 24.97222222222222)"/><use xlink:href="#u" transform="matrix(1,0,0,1,1122.6666666666667,1346.6408211459975) translate(3.271604938271601 46.30555555555556)"/><use xlink:href="#v" transform="matrix(1,0,0,1,1122.6666666666667,1346.6408211459975) translate(85.09876543209876 46.30555555555556)"/><use xlink:href="#w" transform="matrix(1,0,0,1,1122.6666666666667,1346.6408211459975) translate(1.345679012345684 67.6388888888889)"/><use xlink:href="#x" transform="matrix(1,0,0,1,1122.6666666666667,1346.6408211459975) translate(71.27160493827161 67.6388888888889)"/><path d="M1097.67 1641.34a8 8 0 0 1 8-8h144a8 8 0 0 1 8 8v64a8 8 0 0 1-8 8h-144a8 8 0 0 1-8-8z" stroke="#333" fill="#008a0e"/><use xlink:href="#y" transform="matrix(1,0,0,1,1109.6666666666667,1645.3395295944092) translate(13.950617283950606 21.22222222222222)"/><use xlink:href="#z" transform="matrix(1,0,0,1,1109.6666666666667,1645.3395295944092) translate(57.99999999999999 21.22222222222222)"/><use xlink:href="#A" transform="matrix(1,0,0,1,1109.6666666666667,1645.3395295944092) translate(27.629629629629626 42.55555555555556)"/><path d="M1225.67 1773.34c17.67 0 32 17.9 32 40s-14.33 40-32 40h-96c-17.68 0-32-17.9-32-40s14.32-40 32-40z" stroke="#333" fill="#fa7811"/><use xlink:href="#B" transform="matrix(1,0,0,1,1102.6666666666667,1778.3395295944092) translate(56.28395061728395 38.28472222222222)"/><path d="M1177.67 268.1v63.65" stroke="#333" fill="none"/><path d="M1178.17 268.1h-1v-.5h1z" stroke="#333" stroke-width=".05" fill="#333"/><path d="M1177.67 346.52l-4.64-14.27h9.27z" stroke="#333" fill="#333"/><path d="M1177.67 1262.6v38.16" stroke="#333" fill="none"/><path d="M1178.17 1262.6h-1v-.5h1z" stroke="#333" stroke-width=".05" fill="#333"/><path d="M1177.67 1315.52l-4.64-14.26h9.27z" stroke="#333" fill="#333"/><path d="M1177.67 1714.3v42.16" stroke="#333" fill="none"/><path d="M1178.17 1714.3h-1v-.5h1z" stroke="#333" stroke-width=".05" fill="#333"/><path d="M1177.67 1771.22l-4.64-14.26h9.27z" stroke="#333" fill="#333"/><path d="M1171.28 504.63a10.6 10.6 0 0 1 12.77 0l77.23 58.26a6.04 6.04 0 0 1 0 9.63l-77.23 58.26a10.6 10.6 0 0 1-12.77 0l-77.23-58.27a6.04 6.04 0 0 1 0-9.64z" stroke="#333" fill="#d916a8"/><use xlink:href="#C" transform="matrix(1,0,0,1,1092.6666666666667,504.8104731625567) translate(53.449444444444445 45.72222222222222)"/><use xlink:href="#D" transform="matrix(1,0,0,1,1092.6666666666667,504.8104731625567) translate(73.20253086419754 45.72222222222222)"/><use xlink:href="#E" transform="matrix(1,0,0,1,1092.6666666666667,504.8104731625567) translate(20.980308641975306 67.05555555555556)"/><use xlink:href="#F" transform="matrix(1,0,0,1,1092.6666666666667,504.8104731625567) translate(60.4370987654321 67.05555555555556)"/><use xlink:href="#G" transform="matrix(1,0,0,1,1092.6666666666667,504.8104731625567) translate(52.980308641975306 88.3888888888889)"/><path d="M1528 521.97c17.67 0 32 17.9 32 40s-14.33 40-32 40h-96c-17.67 0-32-17.9-32-40s14.33-40 32-40z" stroke="#333" fill="#fa7811"/><use xlink:href="#B" transform="matrix(1,0,0,1,1405,526.9693331219942) translate(56.28395061728395 38.28472222222222)"/><path d="M1182.67 439.55V486.82" stroke="#333" fill="none"/><path d="M1183.17 439.56h-1v-.5h1z" stroke="#333" stroke-width=".05" fill="#333"/><path d="M1182.67 501.6l-4.63-14.28h9.27z" stroke="#333" fill="#333"/><path d="M1178.17 694.93h-1v-11.9h1zm0-33.22h-1v-27.77h1z" stroke="#333" stroke-width=".05" fill="#333"/><path d="M1177.67 633.43l.5-.03v.54h-1v-.54z" fill="#333"/><path d="M1177.67 633.4l.52-.03v.6h-1.06v-.6zm-.48.52h.94v-.5l-.47.04-.48-.04z" stroke="#333" stroke-width=".05" fill="#333"/><path d="M1177.67 709.7l-4.64-14.27h9.27z" fill="#333"/><path d="M1177.67 711.32l-5.33-16.4H1183zm-3.95-15.4l3.95 12.16 3.94-12.15z" stroke="#333" stroke-width=".05" fill="#333"/><use xlink:href="#H" transform="matrix(1,0,0,1,1163.172839506173,661.7068367592916) translate(0.005000000000000782 14.222222222222223)"/><path d="M1320.7 568.2h-56.02v-1h56.03zm62.83 0h-40.15v-1h40.15z" stroke="#333" stroke-width=".05" fill="#333"/><path d="M1264.7 568.2h-.56l.04-.5-.04-.5h.56z" fill="#333"/><path d="M1264.72 568.23h-.6l.04-.52-.05-.52h.62zm-.56-1l.05.48-.04.48h.5v-.95z" stroke="#333" stroke-width=".05" fill="#333"/><path d="M1398.3 567.7l-14.27 4.64v-9.27z" fill="#333"/><path d="M1399.9 567.7l-16.37 5.33V562.4zm-15.37 3.96l12.14-3.95-12.14-3.94z" stroke="#333" stroke-width=".05" fill="#333"/><use xlink:href="#I" transform="matrix(1,0,0,1,1320.713567069683,557.0429114705781) translate(0.005000000000000782 14.222222222222223)"/><path d="M1171.28 925.53a10.6 10.6 0 0 1 12.77 0l77.23 58.26a6.04 6.04 0 0 1 0 9.63l-77.23 58.26a10.6 10.6 0 0 1-12.77 0l-77.23-58.27a6.04 6.04 0 0 1 0-9.64z" stroke="#333" fill="#d916a8"/><use xlink:href="#C" transform="matrix(1,0,0,1,1092.6666666666667,925.7127097148791) translate(53.449444444444445 45.72222222222222)"/><use xlink:href="#D" transform="matrix(1,0,0,1,1092.6666666666667,925.7127097148791) translate(73.20253086419754 45.72222222222222)"/><use xlink:href="#E" transform="matrix(1,0,0,1,1092.6666666666667,925.7127097148791) translate(30.782777777777774 67.05555555555556)"/><use xlink:href="#r" transform="matrix(1,0,0,1,1092.6666666666667,925.7127097148791) translate(70.23956790123457 67.05555555555556)"/><use xlink:href="#G" transform="matrix(1,0,0,1,1092.6666666666667,925.7127097148791) translate(52.980308641975306 88.3888888888889)"/><path d="M1788 948.6c17.67 0 32 17.92 32 40 0 22.1-14.33 40-32 40h-96c-17.67 0-32-17.9-32-40 0-22.08 14.33-40 32-40z" stroke="#333" fill="#fa7811"/><use xlink:href="#B" transform="matrix(1,0,0,1,1665,953.6118146667459) translate(56.28395061728395 38.28472222222222)"/><path d="M1383.83 952.6a8 8 0 0 1 8-8h144a8 8 0 0 1 8 8v72a8 8 0 0 1-8 8h-144a8 8 0 0 1-8-8z" stroke="#333" fill="#008a0e"/><g><use xlink:href="#J" transform="matrix(1,0,0,1,1395.8333333333335,956.6118146667459) translate(23.135802469135797 14.222222222222223)"/><use xlink:href="#K" transform="matrix(1,0,0,1,1395.8333333333335,956.6118146667459) translate(83.28395061728395 14.222222222222223)"/><use xlink:href="#k" transform="matrix(1,0,0,1,1395.8333333333335,956.6118146667459) translate(5.481481481481481 35.55555555555556)"/><use xlink:href="#L" transform="matrix(1,0,0,1,1395.8333333333335,956.6118146667459) translate(99.01234567901234 35.55555555555556)"/><use xlink:href="#M" transform="matrix(1,0,0,1,1395.8333333333335,956.6118146667459) translate(0.024691358024682586 56.88888888888889)"/><use xlink:href="#N" transform="matrix(1,0,0,1,1395.8333333333335,956.6118146667459) translate(59.08641975308642 56.88888888888889)"/></g><path d="M1312.45 989.1h-47.77v-1h47.77zm54.55 0h-31.88v-1H1367z" stroke="#333" stroke-width=".05" fill="#333"/><path d="M1264.7 989.1h-.56l.04-.5-.04-.5h.56z" fill="#333"/><path d="M1264.72 989.14h-.6l.04-.53-.05-.5h.62zm-.56-1l.05.47-.04.5h.5v-.96z" stroke="#333" stroke-width=".05" fill="#333"/><path d="M1381.76 988.6l-14.26 4.65v-9.27z" fill="#333"/><path d="M1383.38 988.6l-16.38 5.34V983.3zm-15.38 3.96l12.15-3.95-12.15-3.94z" stroke="#333" stroke-width=".05" fill="#333"/><g><use xlink:href="#I" transform="matrix(1,0,0,1,1312.4490157176617,977.9451480000793) translate(0.005000000000000782 14.222222222222223)"/></g><path d="M1544.78 988.6h98.34" stroke="#333" fill="none"/><path d="M1544.8 989.1h-.5l-.02-1h.52z" stroke="#333" stroke-width=".05" fill="#333"/><path d="M1657.88 988.6l-14.26 4.65v-9.27z" stroke="#333" fill="#333"/><path d="M1177.67 843.4v63.1" stroke="#333" fill="none"/><path d="M1178.17 843.4h-1v-.5l1-.02z" stroke="#333" stroke-width=".05" fill="#333"/><path d="M1177.67 921.27l-4.64-14.26h9.27z" stroke="#333" fill="#333"/><path d="M1178.17 1156.8h-1v-32.37h1zm0-53.7h-1v-48.27h1z" stroke="#333" stroke-width=".05" fill="#333"/><path d="M1177.67 1054.33l.5-.03v.55h-1v-.55z" fill="#333"/><path d="M1177.67 1054.3l.52-.03v.6h-1.06v-.6zm-.48.52h.94v-.5l-.47.04-.48-.03z" stroke="#333" stroke-width=".05" fill="#333"/><path d="M1177.67 1171.57l-4.64-14.26h9.27z" fill="#333"/><path d="M1177.67 1173.2l-5.33-16.4H1183zm-3.95-15.4l3.95 12.15 3.94-12.14z" stroke="#333" stroke-width=".05" fill="#333"/><g><use xlink:href="#H" transform="matrix(1,0,0,1,1163.172839506173,1103.0945186495796) translate(0.005000000000000782 14.222222222222223)"/></g><path d="M1237.67 1588c0 6.63-26.87 12-60 12-33.14 0-60-5.37-60-12v-96c0-6.63 26.86-12 60-12 33.13 0 60 5.37 60 12z" stroke="#333" fill="#860303"/><path d="M1237.67 1492c0 6.63-26.87 12-60 12-33.14 0-60-5.37-60-12" stroke="#333" fill="none"/><g><use xlink:href="#O" transform="matrix(1,0,0,1,1122.6666666666667,1509) translate(19.98765432098765 24.97222222222222)"/><use xlink:href="#u" transform="matrix(1,0,0,1,1122.6666666666667,1509) translate(3.271604938271601 46.30555555555556)"/><use xlink:href="#v" transform="matrix(1,0,0,1,1122.6666666666667,1509) translate(85.09876543209876 46.30555555555556)"/><use xlink:href="#w" transform="matrix(1,0,0,1,1122.6666666666667,1509) translate(1.345679012345684 67.6388888888889)"/><use xlink:href="#x" transform="matrix(1,0,0,1,1122.6666666666667,1509) translate(71.27160493827161 67.6388888888889)"/></g><path d="M1177.67 1438.64v24.48" stroke="#333" fill="none"/><path d="M1177.67 1438.14l.5-.02v.53h-1v-.53z" stroke="#333" stroke-width=".05" fill="#333"/><path d="M1177.67 1477.88l-4.64-14.26h9.27z" stroke="#333" fill="#333"/><path d="M1177.67 1601v15.5" stroke="#333" fill="none"/><path d="M1177.67 1600.5l.5-.02v.53h-1v-.52z" stroke="#333" stroke-width=".05" fill="#333"/><path d="M1177.67 1631.27l-4.64-14.27h9.27z" stroke="#333" fill="#333"/><defs><path fill="#333" d="M24-248c120-7 223 5 221 122C244-46 201 0 124 0H24v-248zM76-40c74 7 117-18 117-86 0-67-45-88-117-82v168" id="P"/><path fill="#333" d="M169-182c-1-43-94-46-97-3 18 66 151 10 154 114 3 95-165 93-204 36-6-8-10-19-12-30l50-8c3 46 112 56 116 5-17-69-150-10-154-114-4-87 153-88 188-35 5 8 8 18 10 28" id="Q"/><path fill="#333" d="M140-251c80 0 125 45 125 126S219 4 139 4C58 4 15-44 15-125s44-126 125-126zm-1 214c52 0 73-35 73-88 0-50-21-86-72-86-52 0-73 35-73 86s22 88 72 88" id="R"/><path fill="#333" d="M238-95c0 69-44 99-111 99C63 4 22-25 22-93v-155h51v151c-1 38 19 59 55 60 90 1 49-130 58-211h52v153" id="S"/><path fill="#333" d="M240-174c0 40-23 61-54 70L253 0h-59l-57-94H76V0H24v-248c93 4 217-23 216 74zM76-134c48-2 112 12 112-38 0-48-66-32-112-35v73" id="T"/><path fill="#333" d="M67-125c0 53 21 87 73 88 37 1 54-22 65-47l45 17C233-25 199 4 140 4 58 4 20-42 15-125 8-235 124-281 211-232c18 10 29 29 36 50l-46 12c-8-25-30-41-62-41-52 0-71 34-72 86" id="U"/><path fill="#333" d="M24 0v-248h195v40H76v63h132v40H76v65h150V0H24" id="V"/><g id="b"><use transform="matrix(0.09259259259259256,0,0,0.09259259259259256,0,0)" xlink:href="#P"/><use transform="matrix(0.09259259259259256,0,0,0.09259259259259256,23.981481481481474,0)" xlink:href="#Q"/><use transform="matrix(0.09259259259259256,0,0,0.09259259259259256,46.20370370370369,0)" xlink:href="#R"/><use transform="matrix(0.09259259259259256,0,0,0.09259259259259256,72.1296296296296,0)" xlink:href="#S"/><use transform="matrix(0.09259259259259256,0,0,0.09259259259259256,96.11111111111107,0)" xlink:href="#T"/><use transform="matrix(0.09259259259259256,0,0,0.09259259259259256,120.09259259259255,0)" xlink:href="#U"/><use transform="matrix(0.09259259259259256,0,0,0.09259259259259256,144.07407407407402,0)" xlink:href="#V"/></g><path fill="#333" d="M175 0L67-191c6 58 2 128 3 191H24v-248h59L193-55c-6-58-2-129-3-193h46V0h-61" id="W"/><path fill="#333" d="M199 0l-22-63H83L61 0H9l90-248h61L250 0h-51zm-33-102l-36-108c-10 38-24 72-36 108h72" id="X"/><path fill="#333" d="M24-248c93 1 206-16 204 79-1 75-69 88-152 82V0H24v-248zm52 121c47 0 100 7 100-41 0-47-54-39-100-39v80" id="Y"/><path fill="#333" d="M146-102V0H94v-102L6-248h54l60 105 60-105h54" id="Z"/><g id="c"><use transform="matrix(0.09259259259259256,0,0,0.09259259259259256,0,0)" xlink:href="#Q"/><use transform="matrix(0.09259259259259256,0,0,0.09259259259259256,22.222222222222214,0)" xlink:href="#W"/><use transform="matrix(0.09259259259259256,0,0,0.09259259259259256,46.20370370370369,0)" xlink:href="#X"/><use transform="matrix(0.09259259259259256,0,0,0.09259259259259256,70.18518518518516,0)" xlink:href="#Y"/><use transform="matrix(0.09259259259259256,0,0,0.09259259259259256,92.40740740740738,0)" xlink:href="#Q"/><use transform="matrix(0.09259259259259256,0,0,0.09259259259259256,114.62962962962959,0)" xlink:href="#Z"/><use transform="matrix(0.09259259259259256,0,0,0.09259259259259256,136.8518518518518,0)" xlink:href="#W"/><use transform="matrix(0.09259259259259256,0,0,0.09259259259259256,160.83333333333326,0)" xlink:href="#U"/></g><path fill="#fafafa" d="M169-182c-1-43-94-46-97-3 18 66 151 10 154 114 3 95-165 93-204 36-6-8-10-19-12-30l50-8c3 46 112 56 116 5-17-69-150-10-154-114-4-87 153-88 188-35 5 8 8 18 10 28" id="aa"/><path fill="#fafafa" d="M115-3C79 11 28 4 28-45v-112H4v-33h27l15-45h31v45h36v33H77v99c-1 23 16 31 38 25v30" id="ab"/><path fill="#fafafa" d="M133-34C117-15 103 5 69 4 32 3 11-16 11-54c-1-60 55-63 116-61 1-26-3-47-28-47-18 1-26 9-28 27l-52-2c7-38 36-58 82-57s74 22 75 68l1 82c-1 14 12 18 25 15v27c-30 8-71 5-69-32zm-48 3c29 0 43-24 42-57-32 0-66-3-65 30 0 17 8 27 23 27" id="ac"/><path fill="#fafafa" d="M135-150c-39-12-60 13-60 57V0H25l-1-190h47c2 13-1 29 3 40 6-28 27-53 61-41v41" id="ad"/><g id="d"><use transform="matrix(0.06790123456790123,0,0,0.06790123456790123,0,0)" xlink:href="#aa"/><use transform="matrix(0.06790123456790123,0,0,0.06790123456790123,16.296296296296294,0)" xlink:href="#ab"/><use transform="matrix(0.06790123456790123,0,0,0.06790123456790123,24.37654320987654,0)" xlink:href="#ac"/><use transform="matrix(0.06790123456790123,0,0,0.06790123456790123,37.95679012345679,0)" xlink:href="#ad"/><use transform="matrix(0.06790123456790123,0,0,0.06790123456790123,47.462962962962955,0)" xlink:href="#ab"/></g><path fill="#fafafa" d="M67-125c0 53 21 87 73 88 37 1 54-22 65-47l45 17C233-25 199 4 140 4 58 4 20-42 15-125 8-235 124-281 211-232c18 10 29 29 36 50l-46 12c-8-25-30-41-62-41-52 0-71 34-72 86" id="ae"/><path fill="#fafafa" d="M25 0v-261h50V0H25" id="af"/><path fill="#fafafa" d="M110-194c64 0 96 36 96 99 0 64-35 99-97 99-61 0-95-36-95-99 0-62 34-99 96-99zm-1 164c35 0 45-28 45-65 0-40-10-65-43-65-34 0-45 26-45 65 0 36 10 65 43 65" id="ag"/><path fill="#fafafa" d="M195-6C206 82 75 100 31 46c-4-6-6-13-8-21l49-6c3 16 16 24 34 25 40 0 42-37 40-79-11 22-30 35-61 35-53 0-70-43-70-97 0-56 18-96 73-97 30 0 46 14 59 34l2-30h47zm-90-29c32 0 41-27 41-63 0-35-9-62-40-62-32 0-39 29-40 63 0 36 9 62 39 62" id="ah"/><g id="e"><use transform="matrix(0.04938271604938272,0,0,0.04938271604938272,0,0)" xlink:href="#ae"/><use transform="matrix(0.04938271604938272,0,0,0.04938271604938272,12.790123456790125,0)" xlink:href="#ac"/><use transform="matrix(0.04938271604938272,0,0,0.04938271604938272,22.66666666666667,0)" xlink:href="#ab"/><use transform="matrix(0.04938271604938272,0,0,0.04938271604938272,28.54320987654322,0)" xlink:href="#ac"/><use transform="matrix(0.04938271604938272,0,0,0.04938271604938272,38.41975308641976,0)" xlink:href="#af"/><use transform="matrix(0.04938271604938272,0,0,0.04938271604938272,43.35802469135803,0)" xlink:href="#ag"/><use transform="matrix(0.04938271604938272,0,0,0.04938271604938272,54.17283950617284,0)" xlink:href="#ah"/></g><path fill="#fafafa" d="M240-174c0 40-23 61-54 70L253 0h-59l-57-94H76V0H24v-248c93 4 217-23 216 74zM76-134c48-2 112 12 112-38 0-48-66-32-112-35v73" id="ai"/><path fill="#fafafa" d="M230 0l2-204L168 0h-37L68-204 70 0H24v-248h70l56 185 57-185h69V0h-46" id="aj"/><path fill="#fafafa" d="M199 0l-22-63H83L61 0H9l90-248h61L250 0h-51zm-33-102l-36-108c-10 38-24 72-36 108h72" id="ak"/><path fill="#fafafa" d="M175 0L67-191c6 58 2 128 3 191H24v-248h59L193-55c-6-58-2-129-3-193h46V0h-61" id="al"/><g id="f"><use transform="matrix(0.04938271604938272,0,0,0.04938271604938272,0,0)" xlink:href="#ai"/><use transform="matrix(0.04938271604938272,0,0,0.04938271604938272,12.790123456790125,0)" xlink:href="#aj"/><use transform="matrix(0.04938271604938272,0,0,0.04938271604938272,27.555555555555557,0)" xlink:href="#ak"/><use transform="matrix(0.04938271604938272,0,0,0.04938271604938272,40.345679012345684,0)" xlink:href="#al"/></g><path fill="#fafafa" d="M182-130c37 4 62 22 62 59C244 23 116-4 24 0v-248c84 5 203-23 205 63 0 31-19 50-47 55zM76-148c40-3 101 13 101-30 0-44-60-28-101-31v61zm0 110c48-3 116 14 116-37 0-48-69-32-116-35v72" id="am"/><path fill="#fafafa" d="M190-63c-7 42-38 67-86 67-59 0-84-38-90-98-12-110 154-137 174-36l-49 2c-2-19-15-32-35-32-30 0-35 28-38 64-6 74 65 87 74 30" id="an"/><path fill="#fafafa" d="M147 0L96-86 75-71V0H25v-261h50v150l67-79h53l-66 74L201 0h-54" id="ao"/><path fill="#fafafa" d="M85 4C-2 5 27-109 22-190h50c7 57-23 150 33 157 60-5 35-97 40-157h50l1 190h-47c-2-12 1-28-3-38-12 25-28 42-61 42" id="ap"/><path fill="#fafafa" d="M135-194c53 0 70 44 70 98 0 56-19 98-73 100-31 1-45-17-59-34 3 33 2 69 2 105H25l-1-265h48c2 10 0 23 3 31 11-24 29-35 60-35zM114-30c33 0 39-31 40-66 0-38-9-64-40-64-56 0-55 130 0 130" id="aq"/><g id="g"><use transform="matrix(0.04938271604938272,0,0,0.04938271604938272,0,0)" xlink:href="#am"/><use transform="matrix(0.04938271604938272,0,0,0.04938271604938272,12.790123456790125,0)" xlink:href="#ac"/><use transform="matrix(0.04938271604938272,0,0,0.04938271604938272,22.66666666666667,0)" xlink:href="#an"/><use transform="matrix(0.04938271604938272,0,0,0.04938271604938272,32.543209876543216,0)" xlink:href="#ao"/><use transform="matrix(0.04938271604938272,0,0,0.04938271604938272,42.41975308641976,0)" xlink:href="#ap"/><use transform="matrix(0.04938271604938272,0,0,0.04938271604938272,53.23456790123457,0)" xlink:href="#aq"/></g><path fill="#fafafa" d="M24-248c93 1 206-16 204 79-1 75-69 88-152 82V0H24v-248zm52 121c47 0 100 7 100-41 0-47-54-39-100-39v80" id="ar"/><path fill="#fafafa" d="M25-224v-37h50v37H25zM25 0v-190h50V0H25" id="as"/><path fill="#fafafa" d="M185-48c-13 30-37 53-82 52C43 2 14-33 14-96s30-98 90-98c62 0 83 45 84 108H66c0 31 8 55 39 56 18 0 30-7 34-22zm-45-69c5-46-57-63-70-21-2 6-4 13-4 21h74" id="at"/><path fill="#fafafa" d="M137-138c1-29-70-34-71-4 15 46 118 7 119 86 1 83-164 76-172 9l43-7c4 19 20 25 44 25 33 8 57-30 24-41C81-84 22-81 20-136c-2-80 154-74 161-7" id="au"/><g id="h"><use transform="matrix(0.04938271604938272,0,0,0.04938271604938272,0,0)" xlink:href="#ar"/><use transform="matrix(0.04938271604938272,0,0,0.04938271604938272,11.851851851851853,0)" xlink:href="#as"/><use transform="matrix(0.04938271604938272,0,0,0.04938271604938272,16.790123456790127,0)" xlink:href="#at"/><use transform="matrix(0.04938271604938272,0,0,0.04938271604938272,26.666666666666668,0)" xlink:href="#an"/><use transform="matrix(0.04938271604938272,0,0,0.04938271604938272,36.543209876543216,0)" xlink:href="#at"/><use transform="matrix(0.04938271604938272,0,0,0.04938271604938272,46.41975308641976,0)" xlink:href="#au"/></g><g id="i"><use transform="matrix(0.04938271604938272,0,0,0.04938271604938272,0,0)" xlink:href="#am"/><use transform="matrix(0.04938271604938272,0,0,0.04938271604938272,12.790123456790125,0)" xlink:href="#ac"/><use transform="matrix(0.04938271604938272,0,0,0.04938271604938272,22.66666666666667,0)" xlink:href="#an"/><use transform="matrix(0.04938271604938272,0,0,0.04938271604938272,32.543209876543216,0)" xlink:href="#ao"/><use transform="matrix(0.04938271604938272,0,0,0.04938271604938272,42.41975308641976,0)" xlink:href="#ap"/><use transform="matrix(0.04938271604938272,0,0,0.04938271604938272,53.23456790123457,0)" xlink:href="#aq"/></g><path fill="#fafafa" d="M135-194c87-1 58 113 63 194h-50c-7-57 23-157-34-157-59 0-34 97-39 157H25l-1-190h47c2 12-1 28 3 38 12-26 28-41 61-42" id="av"/><g id="j"><use transform="matrix(0.04938271604938272,0,0,0.04938271604938272,0,0)" xlink:href="#ae"/><use transform="matrix(0.04938271604938272,0,0,0.04938271604938272,12.790123456790125,0)" xlink:href="#ap"/><use transform="matrix(0.04938271604938272,0,0,0.04938271604938272,23.60493827160494,0)" xlink:href="#ad"/><use transform="matrix(0.04938271604938272,0,0,0.04938271604938272,30.518518518518523,0)" xlink:href="#ad"/><use transform="matrix(0.04938271604938272,0,0,0.04938271604938272,37.4320987654321,0)" xlink:href="#at"/><use transform="matrix(0.04938271604938272,0,0,0.04938271604938272,47.308641975308646,0)" xlink:href="#av"/><use transform="matrix(0.04938271604938272,0,0,0.04938271604938272,58.12345679012346,0)" xlink:href="#ab"/></g><path fill="#fafafa" d="M121-226c-27-7-43 5-38 36h38v33H83V0H34v-157H6v-33h28c-9-59 32-81 87-68v32" id="aw"/><g id="k"><use transform="matrix(0.04938271604938272,0,0,0.04938271604938272,0,0)" xlink:href="#ae"/><use transform="matrix(0.04938271604938272,0,0,0.04938271604938272,12.790123456790125,0)" xlink:href="#ag"/><use transform="matrix(0.04938271604938272,0,0,0.04938271604938272,23.60493827160494,0)" xlink:href="#av"/><use transform="matrix(0.04938271604938272,0,0,0.04938271604938272,34.41975308641975,0)" xlink:href="#ab"/><use transform="matrix(0.04938271604938272,0,0,0.04938271604938272,40.2962962962963,0)" xlink:href="#ad"/><use transform="matrix(0.04938271604938272,0,0,0.04938271604938272,47.20987654320988,0)" xlink:href="#ag"/><use transform="matrix(0.04938271604938272,0,0,0.04938271604938272,58.0246913580247,0)" xlink:href="#af"/><use transform="matrix(0.04938271604938272,0,0,0.04938271604938272,62.96296296296297,0)" xlink:href="#aw"/><use transform="matrix(0.04938271604938272,0,0,0.04938271604938272,68.8395061728395,0)" xlink:href="#as"/><use transform="matrix(0.04938271604938272,0,0,0.04938271604938272,73.77777777777777,0)" xlink:href="#af"/><use transform="matrix(0.04938271604938272,0,0,0.04938271604938272,78.71604938271605,0)" xlink:href="#at"/></g><path fill="#fafafa" d="M88-194c31-1 46 15 58 34l-1-101h50l1 261h-48c-2-10 0-23-3-31C134-8 116 4 84 4 32 4 16-41 15-95c0-56 19-97 73-99zm17 164c33 0 40-30 41-66 1-37-9-64-41-64s-38 30-39 65c0 43 13 65 39 65" id="ax"/><g id="l"><use transform="matrix(0.04938271604938272,0,0,0.04938271604938272,0,0)" xlink:href="#ac"/><use transform="matrix(0.04938271604938272,0,0,0.04938271604938272,9.876543209876544,0)" xlink:href="#av"/><use transform="matrix(0.04938271604938272,0,0,0.04938271604938272,20.69135802469136,0)" xlink:href="#ax"/></g><g id="m"><use transform="matrix(0.04938271604938272,0,0,0.04938271604938272,0,0)" xlink:href="#ai"/><use transform="matrix(0.04938271604938272,0,0,0.04938271604938272,12.790123456790125,0)" xlink:href="#at"/><use transform="matrix(0.04938271604938272,0,0,0.04938271604938272,22.66666666666667,0)" xlink:href="#au"/><use transform="matrix(0.04938271604938272,0,0,0.04938271604938272,32.543209876543216,0)" xlink:href="#ab"/><use transform="matrix(0.04938271604938272,0,0,0.04938271604938272,38.41975308641976,0)" xlink:href="#ag"/><use transform="matrix(0.04938271604938272,0,0,0.04938271604938272,49.23456790123458,0)" xlink:href="#ad"/><use transform="matrix(0.04938271604938272,0,0,0.04938271604938272,56.14814814814817,0)" xlink:href="#at"/></g><g id="n"><use transform="matrix(0.04938271604938272,0,0,0.04938271604938272,0,0)" xlink:href="#ap"/><use transform="matrix(0.04938271604938272,0,0,0.04938271604938272,10.814814814814815,0)" xlink:href="#au"/><use transform="matrix(0.04938271604938272,0,0,0.04938271604938272,20.69135802469136,0)" xlink:href="#as"/><use transform="matrix(0.04938271604938272,0,0,0.04938271604938272,25.629629629629633,0)" xlink:href="#av"/><use transform="matrix(0.04938271604938272,0,0,0.04938271604938272,36.44444444444445,0)" xlink:href="#ah"/></g><g id="o"><use transform="matrix(0.04938271604938272,0,0,0.04938271604938272,0,0)" xlink:href="#ai"/><use transform="matrix(0.04938271604938272,0,0,0.04938271604938272,12.790123456790125,0)" xlink:href="#aj"/><use transform="matrix(0.04938271604938272,0,0,0.04938271604938272,27.555555555555557,0)" xlink:href="#ak"/><use transform="matrix(0.04938271604938272,0,0,0.04938271604938272,40.345679012345684,0)" xlink:href="#al"/></g><path fill="#fafafa" d="M76-208v77h127v40H76V0H24v-248h183v40H76" id="ay"/><g id="p"><use transform="matrix(0.04938271604938272,0,0,0.04938271604938272,0,0)" xlink:href="#ay"/><use transform="matrix(0.04938271604938272,0,0,0.04938271604938272,10.814814814814815,0)" xlink:href="#as"/><use transform="matrix(0.04938271604938272,0,0,0.04938271604938272,15.753086419753087,0)" xlink:href="#av"/><use transform="matrix(0.04938271604938272,0,0,0.04938271604938272,26.567901234567902,0)" xlink:href="#ax"/></g><path fill="#fafafa" d="M24 0v-248h52v208h133V0H24" id="az"/><g id="q"><use transform="matrix(0.04938271604938272,0,0,0.04938271604938272,0,0)" xlink:href="#az"/><use transform="matrix(0.04938271604938272,0,0,0.04938271604938272,10.814814814814815,0)" xlink:href="#ac"/><use transform="matrix(0.04938271604938272,0,0,0.04938271604938272,20.69135802469136,0)" xlink:href="#au"/><use transform="matrix(0.04938271604938272,0,0,0.04938271604938272,30.567901234567906,0)" xlink:href="#ab"/></g><path fill="#fafafa" d="M4 7l51-268h42L46 7H4" id="aA"/><path fill="#fafafa" d="M24 0v-248h52V0H24" id="aB"/><g id="r"><use transform="matrix(0.04938271604938272,0,0,0.04938271604938272,0,0)" xlink:href="#ay"/><use transform="matrix(0.04938271604938272,0,0,0.04938271604938272,10.814814814814815,0)" xlink:href="#ap"/><use transform="matrix(0.04938271604938272,0,0,0.04938271604938272,21.62962962962963,0)" xlink:href="#af"/><use transform="matrix(0.04938271604938272,0,0,0.04938271604938272,26.567901234567902,0)" xlink:href="#af"/><use transform="matrix(0.04938271604938272,0,0,0.04938271604938272,31.506172839506174,0)" xlink:href="#aA"/><use transform="matrix(0.04938271604938272,0,0,0.04938271604938272,36.44444444444444,0)" xlink:href="#aB"/><use transform="matrix(0.04938271604938272,0,0,0.04938271604938272,41.382716049382715,0)" xlink:href="#av"/><use transform="matrix(0.04938271604938272,0,0,0.04938271604938272,52.19753086419754,0)" xlink:href="#an"/><use transform="matrix(0.04938271604938272,0,0,0.04938271604938272,62.074074074074076,0)" xlink:href="#ad"/></g><path fill="#fafafa" d="M135-194c52 0 70 43 70 98 0 56-19 99-73 100-30 1-46-15-58-35L72 0H24l1-261h50v104c11-23 29-37 60-37zM114-30c31 0 40-27 40-66 0-37-7-63-39-63s-41 28-41 65c0 36 8 64 40 64" id="aC"/><g id="s"><use transform="matrix(0.04938271604938272,0,0,0.04938271604938272,0,0)" xlink:href="#aC"/><use transform="matrix(0.04938271604938272,0,0,0.04938271604938272,10.814814814814815,0)" xlink:href="#ac"/><use transform="matrix(0.04938271604938272,0,0,0.04938271604938272,20.69135802469136,0)" xlink:href="#an"/><use transform="matrix(0.04938271604938272,0,0,0.04938271604938272,30.567901234567906,0)" xlink:href="#ao"/><use transform="matrix(0.04938271604938272,0,0,0.04938271604938272,40.44444444444445,0)" xlink:href="#ap"/><use transform="matrix(0.04938271604938272,0,0,0.04938271604938272,51.25925925925927,0)" xlink:href="#aq"/></g><g id="t"><use transform="matrix(0.04938271604938272,0,0,0.04938271604938272,0,0)" xlink:href="#ai"/><use transform="matrix(0.04938271604938272,0,0,0.04938271604938272,12.790123456790125,0)" xlink:href="#at"/><use transform="matrix(0.04938271604938272,0,0,0.04938271604938272,22.66666666666667,0)" xlink:href="#au"/><use transform="matrix(0.04938271604938272,0,0,0.04938271604938272,32.543209876543216,0)" xlink:href="#ab"/><use transform="matrix(0.04938271604938272,0,0,0.04938271604938272,38.41975308641976,0)" xlink:href="#ag"/><use transform="matrix(0.04938271604938272,0,0,0.04938271604938272,49.23456790123458,0)" xlink:href="#ad"/><use transform="matrix(0.04938271604938272,0,0,0.04938271604938272,56.14814814814817,0)" xlink:href="#at"/></g><g id="u"><use transform="matrix(0.04938271604938272,0,0,0.04938271604938272,0,0)" xlink:href="#ax"/><use transform="matrix(0.04938271604938272,0,0,0.04938271604938272,10.814814814814815,0)" xlink:href="#ac"/><use transform="matrix(0.04938271604938272,0,0,0.04938271604938272,20.69135802469136,0)" xlink:href="#ab"/><use transform="matrix(0.04938271604938272,0,0,0.04938271604938272,26.567901234567902,0)" xlink:href="#ac"/><use transform="matrix(0.04938271604938272,0,0,0.04938271604938272,36.44444444444445,0)" xlink:href="#aC"/><use transform="matrix(0.04938271604938272,0,0,0.04938271604938272,47.25925925925927,0)" xlink:href="#ac"/><use transform="matrix(0.04938271604938272,0,0,0.04938271604938272,57.135802469135804,0)" xlink:href="#au"/><use transform="matrix(0.04938271604938272,0,0,0.04938271604938272,67.01234567901236,0)" xlink:href="#at"/></g><g id="v"><use transform="matrix(0.04938271604938272,0,0,0.04938271604938272,0,0)" xlink:href="#ag"/><use transform="matrix(0.04938271604938272,0,0,0.04938271604938272,10.814814814814815,0)" xlink:href="#av"/></g><g id="w"><use transform="matrix(0.04938271604938272,0,0,0.04938271604938272,0,0)" xlink:href="#aa"/><use transform="matrix(0.04938271604938272,0,0,0.04938271604938272,11.851851851851853,0)" xlink:href="#ab"/><use transform="matrix(0.04938271604938272,0,0,0.04938271604938272,17.728395061728396,0)" xlink:href="#ac"/><use transform="matrix(0.04938271604938272,0,0,0.04938271604938272,27.60493827160494,0)" xlink:href="#ah"/><use transform="matrix(0.04938271604938272,0,0,0.04938271604938272,38.41975308641975,0)" xlink:href="#as"/><use transform="matrix(0.04938271604938272,0,0,0.04938271604938272,43.358024691358025,0)" xlink:href="#av"/><use transform="matrix(0.04938271604938272,0,0,0.04938271604938272,54.17283950617284,0)" xlink:href="#ah"/></g><path fill="#fafafa" d="M114-157C55-157 80-60 75 0H25v-261h50l-1 109c12-26 28-41 61-42 86-1 58 113 63 194h-50c-7-57 23-157-34-157" id="aD"/><g id="x"><use transform="matrix(0.04938271604938272,0,0,0.04938271604938272,0,0)" xlink:href="#aD"/><use transform="matrix(0.04938271604938272,0,0,0.04938271604938272,10.814814814814815,0)" xlink:href="#ag"/><use transform="matrix(0.04938271604938272,0,0,0.04938271604938272,21.62962962962963,0)" xlink:href="#au"/><use transform="matrix(0.04938271604938272,0,0,0.04938271604938272,31.506172839506174,0)" xlink:href="#ab"/></g><path fill="#fafafa" d="M136-208V0H84v-208H4v-40h212v40h-80" id="aE"/><g id="y"><use transform="matrix(0.04938271604938272,0,0,0.04938271604938272,0,0)" xlink:href="#aE"/><use transform="matrix(0.04938271604938272,0,0,0.04938271604938272,9.481481481481481,0)" xlink:href="#ac"/><use transform="matrix(0.04938271604938272,0,0,0.04938271604938272,19.358024691358025,0)" xlink:href="#ao"/><use transform="matrix(0.04938271604938272,0,0,0.04938271604938272,29.23456790123457,0)" xlink:href="#at"/></g><path fill="#fafafa" d="M24-248c120-7 223 5 221 122C244-46 201 0 124 0H24v-248zM76-40c74 7 117-18 117-86 0-67-45-88-117-82v168" id="aF"/><path fill="#fafafa" d="M144 0l-44-69L55 0H2l70-98-66-92h53l41 62 40-62h54l-67 91 71 99h-54" id="aG"/><g id="z"><use transform="matrix(0.04938271604938272,0,0,0.04938271604938272,0,0)" xlink:href="#aF"/><use transform="matrix(0.04938271604938272,0,0,0.04938271604938272,12.790123456790125,0)" xlink:href="#at"/><use transform="matrix(0.04938271604938272,0,0,0.04938271604938272,22.66666666666667,0)" xlink:href="#af"/><use transform="matrix(0.04938271604938272,0,0,0.04938271604938272,27.604938271604947,0)" xlink:href="#aq"/><use transform="matrix(0.04938271604938272,0,0,0.04938271604938272,38.41975308641976,0)" xlink:href="#aD"/><use transform="matrix(0.04938271604938272,0,0,0.04938271604938272,49.23456790123458,0)" xlink:href="#as"/><use transform="matrix(0.04938271604938272,0,0,0.04938271604938272,54.17283950617284,0)" xlink:href="#aG"/></g><g id="A"><use transform="matrix(0.04938271604938272,0,0,0.04938271604938272,0,0)" xlink:href="#aa"/><use transform="matrix(0.04938271604938272,0,0,0.04938271604938272,11.851851851851853,0)" xlink:href="#av"/><use transform="matrix(0.04938271604938272,0,0,0.04938271604938272,22.666666666666668,0)" xlink:href="#ac"/><use transform="matrix(0.04938271604938272,0,0,0.04938271604938272,32.543209876543216,0)" xlink:href="#aq"/><use transform="matrix(0.04938271604938272,0,0,0.04938271604938272,43.35802469135803,0)" xlink:href="#au"/><use transform="matrix(0.04938271604938272,0,0,0.04938271604938272,53.23456790123457,0)" xlink:href="#aD"/><use transform="matrix(0.04938271604938272,0,0,0.04938271604938272,64.0493827160494,0)" xlink:href="#ag"/><use transform="matrix(0.04938271604938272,0,0,0.04938271604938272,74.8641975308642,0)" xlink:href="#ab"/></g><path fill="#fafafa" d="M24 0v-248h195v40H76v63h132v40H76v65h150V0H24" id="aH"/><g id="B"><use transform="matrix(0.04938271604938272,0,0,0.04938271604938272,0,0)" xlink:href="#aH"/><use transform="matrix(0.04938271604938272,0,0,0.04938271604938272,11.851851851851853,0)" xlink:href="#al"/><use transform="matrix(0.04938271604938272,0,0,0.04938271604938272,24.641975308641978,0)" xlink:href="#aF"/></g><g id="C"><use transform="matrix(0.04938271604938272,0,0,0.04938271604938272,0,0)" xlink:href="#aB"/><use transform="matrix(0.04938271604938272,0,0,0.04938271604938272,4.938271604938272,0)" xlink:href="#au"/></g><g id="D"><use transform="matrix(0.04938271604938272,0,0,0.04938271604938272,0,0)" xlink:href="#ab"/><use transform="matrix(0.04938271604938272,0,0,0.04938271604938272,5.8765432098765435,0)" xlink:href="#aD"/><use transform="matrix(0.04938271604938272,0,0,0.04938271604938272,16.691358024691358,0)" xlink:href="#at"/><use transform="matrix(0.04938271604938272,0,0,0.04938271604938272,26.567901234567902,0)" xlink:href="#ad"/><use transform="matrix(0.04938271604938272,0,0,0.04938271604938272,33.48148148148148,0)" xlink:href="#at"/></g><path fill="#fafafa" d="M231 0h-52l-39-155L100 0H48L-1-190h46L77-45c9-52 24-97 36-145h53l37 145 32-145h46" id="aI"/><g id="E"><use transform="matrix(0.04938271604938272,0,0,0.04938271604938272,0,0)" xlink:href="#av"/><use transform="matrix(0.04938271604938272,0,0,0.04938271604938272,10.814814814814815,0)" xlink:href="#at"/><use transform="matrix(0.04938271604938272,0,0,0.04938271604938272,20.69135802469136,0)" xlink:href="#aI"/></g><g id="F"><use transform="matrix(0.04938271604938272,0,0,0.04938271604938272,0,0)" xlink:href="#ae"/><use transform="matrix(0.04938271604938272,0,0,0.04938271604938272,12.790123456790125,0)" xlink:href="#ag"/><use transform="matrix(0.04938271604938272,0,0,0.04938271604938272,23.60493827160494,0)" xlink:href="#av"/><use transform="matrix(0.04938271604938272,0,0,0.04938271604938272,34.41975308641975,0)" xlink:href="#ab"/><use transform="matrix(0.04938271604938272,0,0,0.04938271604938272,40.2962962962963,0)" xlink:href="#ad"/><use transform="matrix(0.04938271604938272,0,0,0.04938271604938272,47.20987654320988,0)" xlink:href="#ag"/><use transform="matrix(0.04938271604938272,0,0,0.04938271604938272,58.0246913580247,0)" xlink:href="#af"/><use transform="matrix(0.04938271604938272,0,0,0.04938271604938272,62.96296296296297,0)" xlink:href="#aw"/><use transform="matrix(0.04938271604938272,0,0,0.04938271604938272,68.8395061728395,0)" xlink:href="#as"/><use transform="matrix(0.04938271604938272,0,0,0.04938271604938272,73.77777777777777,0)" xlink:href="#af"/><use transform="matrix(0.04938271604938272,0,0,0.04938271604938272,78.71604938271605,0)" xlink:href="#at"/></g><g id="G"><use transform="matrix(0.04938271604938272,0,0,0.04938271604938272,0,0)" xlink:href="#am"/><use transform="matrix(0.04938271604938272,0,0,0.04938271604938272,12.790123456790125,0)" xlink:href="#ac"/><use transform="matrix(0.04938271604938272,0,0,0.04938271604938272,22.66666666666667,0)" xlink:href="#an"/><use transform="matrix(0.04938271604938272,0,0,0.04938271604938272,32.543209876543216,0)" xlink:href="#ao"/><use transform="matrix(0.04938271604938272,0,0,0.04938271604938272,42.41975308641976,0)" xlink:href="#ap"/><use transform="matrix(0.04938271604938272,0,0,0.04938271604938272,53.23456790123457,0)" xlink:href="#aq"/></g><path fill="#333" d="M137-103V0h-34v-103L8-248h37l75 118 75-118h37" id="aJ"/><path fill="#333" d="M100-194c63 0 86 42 84 106H49c0 40 14 67 53 68 26 1 43-12 49-29l28 8c-11 28-37 45-77 45C44 4 14-33 15-96c1-61 26-98 85-98zm52 81c6-60-76-77-97-28-3 7-6 17-6 28h103" id="aK"/><path fill="#333" d="M135-143c-3-34-86-38-87 0 15 53 115 12 119 90S17 21 10-45l28-5c4 36 97 45 98 0-10-56-113-15-118-90-4-57 82-63 122-42 12 7 21 19 24 35" id="aL"/><g id="H"><use transform="matrix(0.04938271604938272,0,0,0.04938271604938272,0,0)" xlink:href="#aJ"/><use transform="matrix(0.04938271604938272,0,0,0.04938271604938272,10.222222222222223,0)" xlink:href="#aK"/><use transform="matrix(0.04938271604938272,0,0,0.04938271604938272,20.098765432098766,0)" xlink:href="#aL"/></g><path fill="#333" d="M190 0L58-211 59 0H30v-248h39L202-35l-2-213h31V0h-41" id="aM"/><path fill="#333" d="M100-194c62-1 85 37 85 99 1 63-27 99-86 99S16-35 15-95c0-66 28-99 85-99zM99-20c44 1 53-31 53-75 0-43-8-75-51-75s-53 32-53 75 10 74 51 75" id="aN"/><g id="I"><use transform="matrix(0.04938271604938272,0,0,0.04938271604938272,0,0)" xlink:href="#aM"/><use transform="matrix(0.04938271604938272,0,0,0.04938271604938272,12.790123456790125,0)" xlink:href="#aN"/></g><path fill="#fafafa" d="M128 0H69L1-190h53L99-40l48-150h52" id="aO"/><g id="J"><use transform="matrix(0.04938271604938272,0,0,0.04938271604938272,0,0)" xlink:href="#ai"/><use transform="matrix(0.04938271604938272,0,0,0.04938271604938272,12.790123456790125,0)" xlink:href="#at"/><use transform="matrix(0.04938271604938272,0,0,0.04938271604938272,22.66666666666667,0)" xlink:href="#aO"/><use transform="matrix(0.04938271604938272,0,0,0.04938271604938272,32.543209876543216,0)" xlink:href="#at"/><use transform="matrix(0.04938271604938272,0,0,0.04938271604938272,42.41975308641976,0)" xlink:href="#ad"/><use transform="matrix(0.04938271604938272,0,0,0.04938271604938272,49.33333333333334,0)" xlink:href="#ab"/></g><path fill="#fafafa" d="M140-251c80 0 125 45 125 126S219 4 139 4C58 4 15-44 15-125s44-126 125-126zm-1 214c52 0 73-35 73-88 0-50-21-86-72-86-52 0-73 35-73 86s22 88 72 88" id="aP"/><g id="K"><use transform="matrix(0.04938271604938272,0,0,0.04938271604938272,0,0)" xlink:href="#aP"/><use transform="matrix(0.04938271604938272,0,0,0.04938271604938272,13.827160493827162,0)" xlink:href="#af"/><use transform="matrix(0.04938271604938272,0,0,0.04938271604938272,18.765432098765434,0)" xlink:href="#ax"/></g><g id="L"><use transform="matrix(0.04938271604938272,0,0,0.04938271604938272,0,0)" xlink:href="#ac"/><use transform="matrix(0.04938271604938272,0,0,0.04938271604938272,9.876543209876544,0)" xlink:href="#av"/><use transform="matrix(0.04938271604938272,0,0,0.04938271604938272,20.69135802469136,0)" xlink:href="#ax"/></g><path fill="#fafafa" d="M220-157c-53 9-28 100-34 157h-49v-107c1-27-5-49-29-50C55-147 81-57 75 0H25l-1-190h47c2 12-1 28 3 38 10-53 101-56 108 0 13-22 24-43 59-42 82 1 51 116 57 194h-49v-107c-1-25-5-48-29-50" id="aQ"/><g id="M"><use transform="matrix(0.04938271604938272,0,0,0.04938271604938272,0,0)" xlink:href="#aQ"/><use transform="matrix(0.04938271604938272,0,0,0.04938271604938272,15.80246913580247,0)" xlink:href="#ag"/><use transform="matrix(0.04938271604938272,0,0,0.04938271604938272,26.617283950617285,0)" xlink:href="#ap"/><use transform="matrix(0.04938271604938272,0,0,0.04938271604938272,37.4320987654321,0)" xlink:href="#av"/><use transform="matrix(0.04938271604938272,0,0,0.04938271604938272,48.24691358024692,0)" xlink:href="#ab"/></g><g id="N"><use transform="matrix(0.04938271604938272,0,0,0.04938271604938272,0,0)" xlink:href="#ax"/><use transform="matrix(0.04938271604938272,0,0,0.04938271604938272,10.814814814814815,0)" xlink:href="#ac"/><use transform="matrix(0.04938271604938272,0,0,0.04938271604938272,20.69135802469136,0)" xlink:href="#ab"/><use transform="matrix(0.04938271604938272,0,0,0.04938271604938272,26.567901234567902,0)" xlink:href="#ac"/><use transform="matrix(0.04938271604938272,0,0,0.04938271604938272,36.44444444444445,0)" xlink:href="#aC"/><use transform="matrix(0.04938271604938272,0,0,0.04938271604938272,47.25925925925927,0)" xlink:href="#ac"/><use transform="matrix(0.04938271604938272,0,0,0.04938271604938272,57.135802469135804,0)" xlink:href="#au"/><use transform="matrix(0.04938271604938272,0,0,0.04938271604938272,67.01234567901236,0)" xlink:href="#at"/></g><g id="O"><use transform="matrix(0.04938271604938272,0,0,0.04938271604938272,0,0)" xlink:href="#ai"/><use transform="matrix(0.04938271604938272,0,0,0.04938271604938272,12.790123456790125,0)" xlink:href="#at"/><use transform="matrix(0.04938271604938272,0,0,0.04938271604938272,22.66666666666667,0)" xlink:href="#an"/><use transform="matrix(0.04938271604938272,0,0,0.04938271604938272,32.543209876543216,0)" xlink:href="#ag"/><use transform="matrix(0.04938271604938272,0,0,0.04938271604938272,43.35802469135803,0)" xlink:href="#aO"/><use transform="matrix(0.04938271604938272,0,0,0.04938271604938272,53.23456790123457,0)" xlink:href="#at"/><use transform="matrix(0.04938271604938272,0,0,0.04938271604938272,63.111111111111114,0)" xlink:href="#ad"/></g></defs></g></svg>